<?xml version="1.0" standalone="no"?>
<!DOCTYPE svg PUBLIC "-//W3C//DTD SVG 20010904//EN"
 "http://www.w3.org/TR/2001/REC-SVG-20010904/DTD/svg10.dtd">
<svg version="1.0" xmlns="http://www.w3.org/2000/svg"
 width="1066.000000pt" height="799.000000pt" viewBox="0 0 1066.000000 799.000000"
 preserveAspectRatio="xMidYMid meet">

<g transform="translate(0.000000,799.000000) scale(0.100000,-0.100000)"
fill="#000000" stroke="none">
<path d="M6305 7404 c-773 -77 -1444 -383 -1979 -904 -289 -281 -491 -562
-667 -925 -154 -320 -243 -626 -295 -1015 -24 -175 -23 -576 1 -760 9 -74 18
-143 19 -152 1 -16 -234 -312 -241 -304 -5 5 -37 135 -212 876 -38 162 -73
311 -76 330 -15 72 -35 108 -72 125 -42 20 -31 22 -343 -52 -129 -31 -269 -64
-310 -73 -267 -62 -744 -176 -845 -202 -209 -53 -215 -61 -174 -235 11 -48 38
-164 60 -258 22 -93 50 -215 64 -270 13 -55 43 -179 65 -275 23 -96 52 -220
65 -275 13 -55 45 -188 70 -295 25 -107 55 -233 66 -280 109 -460 160 -684
165 -724 4 -25 10 -49 15 -51 10 -7 45 87 65 177 20 86 18 101 -41 350 -25
106 -62 261 -82 343 -35 150 -79 335 -132 560 -16 66 -41 172 -55 235 -15 63
-42 178 -61 255 -106 440 -106 435 -78 435 14 0 185 40 708 165 55 13 188 45
295 70 107 25 260 62 340 81 80 18 160 35 179 36 l35 3 61 -255 c153 -629 188
-777 192 -805 4 -27 -13 -51 -146 -209 -83 -98 -151 -184 -151 -190 0 -8 64
-18 198 -30 108 -10 198 -19 199 -20 2 -2 89 -350 157 -631 42 -173 43 -185
17 -185 -10 0 -72 -13 -137 -30 -66 -16 -204 -49 -309 -74 -104 -25 -314 -74
-465 -110 -151 -35 -290 -67 -308 -71 -36 -7 -41 -25 -18 -78 23 -55 127 -207
141 -207 12 0 232 51 520 120 125 30 453 107 528 124 91 21 126 41 142 80 15
36 17 24 -80 436 -40 171 -127 545 -140 608 -6 26 -4 26 128 12 51 -5 126 -12
167 -15 l75 -6 18 -42 c9 -23 49 -100 87 -171 418 -767 1124 -1334 1955 -1570
663 -189 1375 -161 2020 79 109 41 115 43 258 109 484 223 950 618 1271 1079
426 611 634 1399 561 2127 -64 647 -298 1230 -695 1730 -106 133 -374 402
-507 507 -466 368 -960 580 -1588 679 -96 15 -599 28 -700 18z m-883 -1906
c239 -89 389 -322 388 -607 0 -85 -35 -235 -73 -316 l-35 -72 60 -57 c65 -63
78 -88 78 -146 0 -30 -7 -46 -34 -74 -28 -30 -40 -36 -76 -36 -55 0 -93 19
-159 80 -30 28 -59 50 -63 50 -5 0 -23 -7 -40 -16 -69 -36 -132 -48 -253 -48
-186 0 -297 42 -413 156 -69 69 -115 142 -149 240 -21 59 -26 98 -30 203 -6
159 10 243 66 359 79 160 198 257 371 301 88 23 278 14 362 -17z m1497 -2 c13
-6 34 -24 45 -39 20 -27 21 -41 24 -405 l3 -377 -25 -80 c-14 -44 -36 -97 -49
-117 -60 -99 -172 -181 -287 -209 -78 -20 -251 -17 -325 5 -171 50 -287 177
-330 360 -18 73 -22 727 -5 787 16 56 51 82 118 87 52 4 62 1 90 -23 56 -47
62 -89 62 -434 0 -345 6 -390 67 -461 44 -51 119 -76 200 -66 67 8 101 25 141
70 59 67 64 105 70 476 4 298 6 339 22 371 37 72 101 92 179 55z m486 -21 c22
-23 37 -52 44 -85 15 -70 15 -921 0 -991 -7 -34 -22 -64 -44 -88 -30 -32 -37
-35 -88 -35 -46 0 -61 4 -83 24 -56 52 -56 50 -55 597 1 321 5 513 12 531 23
59 57 80 133 81 43 1 52 -3 81 -34z m1028 -2 c35 -17 51 -31 62 -57 33 -77 16
-113 -167 -360 -78 -105 -180 -243 -226 -306 -47 -63 -98 -132 -113 -152 -16
-20 -29 -39 -29 -42 0 -2 105 -6 233 -8 258 -4 292 -11 321 -67 22 -42 20
-103 -4 -134 -43 -55 -71 -58 -465 -55 -352 3 -361 3 -396 25 -19 12 -41 34
-47 48 -18 39 -14 101 8 146 17 32 258 358 496 669 l42 55 -217 6 c-235 6
-272 13 -304 62 -25 38 -22 106 6 141 40 50 86 56 437 53 301 -2 317 -3 363
-24z m12 -1423 c16 -6 33 -26 45 -52 18 -39 20 -68 20 -349 0 -169 -3 -320 -6
-337 -11 -53 -53 -93 -105 -99 -41 -5 -50 -2 -82 27 -23 20 -41 47 -47 71 -7
26 -10 151 -8 347 3 278 5 311 22 345 11 22 29 43 40 47 29 12 90 12 121 0z
m-2703 -24 c10 -6 26 -27 36 -46 15 -32 17 -81 20 -494 3 -502 0 -545 -48
-596 -24 -26 -35 -30 -78 -30 -35 0 -57 6 -77 22 -55 43 -55 46 -55 572 0 267
4 495 9 508 12 32 44 66 72 77 27 11 94 4 121 -13z m631 -10 c45 -30 64 -80
132 -349 107 -420 118 -457 126 -451 5 3 9 12 9 20 0 9 15 79 34 157 19 78 55
229 81 336 25 107 52 206 60 221 18 34 80 90 103 91 56 4 131 -5 155 -19 62
-37 81 -117 168 -677 6 -38 19 -118 30 -177 34 -186 23 -263 -42 -295 -39 -20
-116 -16 -138 6 -48 48 -48 50 -116 603 -18 151 -29 202 -38 178 -3 -8 -29
-112 -58 -230 -62 -262 -115 -454 -135 -498 -28 -60 -47 -72 -116 -72 -107 0
-143 37 -172 176 -8 38 -36 152 -61 254 -25 102 -55 223 -66 270 -12 47 -23
92 -26 100 -12 35 -23 -32 -89 -530 -29 -219 -58 -270 -156 -270 -45 0 -54 4
-84 36 -50 52 -49 69 7 379 22 121 51 285 65 365 35 206 54 290 70 322 18 34
71 75 104 80 46 6 125 -8 153 -26z m-973 -11 c48 -28 68 -87 46 -138 -24 -57
-55 -71 -172 -75 l-103 -4 -3 -417 c-3 -373 -5 -419 -20 -448 -25 -45 -56 -63
-109 -63 -52 0 -93 25 -112 69 -8 18 -14 155 -17 441 l-5 415 -100 5 c-103 5
-114 8 -152 43 -54 49 -33 144 39 177 40 19 62 20 358 18 297 -3 317 -4 350
-23z m2592 14 c78 -21 117 -90 89 -157 -23 -56 -59 -67 -232 -70 l-156 -4 -6
-48 c-3 -26 -3 -72 0 -103 l6 -54 136 -5 c152 -6 190 -18 216 -68 28 -54 14
-115 -34 -147 -21 -14 -55 -19 -171 -23 l-145 -5 -7 -70 c-4 -38 -6 -88 -4
-110 l4 -40 163 -5 c173 -5 192 -10 228 -56 39 -50 19 -128 -42 -161 -28 -16
-62 -18 -277 -18 -212 0 -249 2 -276 17 -59 32 -59 37 -59 558 0 426 2 478 17
506 22 40 41 55 81 64 49 12 427 11 469 -1z m465 -919 c47 -28 67 -65 66 -121
-1 -56 -20 -92 -66 -119 -91 -56 -207 12 -207 121 0 35 7 53 31 83 18 21 41
42 53 46 36 15 90 11 123 -10z"/>
<path d="M5152 5259 c-50 -10 -96 -36 -134 -76 -125 -133 -128 -437 -5 -571
60 -64 107 -86 194 -86 39 -1 75 2 79 7 4 4 -5 20 -20 36 -41 42 -51 93 -29
139 37 77 115 86 194 22 l38 -30 13 38 c8 23 13 84 13 163 0 124 0 125 -37
201 -63 127 -173 184 -306 157z"/>
<path d="M2165 458 c-71 -5 -235 -15 -364 -22 -179 -11 -237 -17 -248 -29 -13
-13 -13 -34 1 -178 9 -90 19 -179 22 -196 l5 -33 480 0 480 0 -6 33 c-21 129
-65 396 -65 400 0 3 -7 13 -16 21 -17 18 -74 19 -289 4z"/>
</g>
</svg>
